<?xml version="1.0" encoding="utf-8"?>
<!-- Generator: Adobe Illustrator 24.2.1, SVG Export Plug-In . SVG Version: 6.00 Build 0)  -->
<svg version="1.1" id="Ebene_1" xmlns="http://www.w3.org/2000/svg" xmlns:xlink="http://www.w3.org/1999/xlink" x="0px" y="0px"
	 viewBox="0 0 500 500" style="enable-background:new 0 0 500 500;" xml:space="preserve">
<style type="text/css">
	.st0{fill:url(#SVGID_1_);}
	.st1{fill:url(#SVGID_2_);}
</style>
<linearGradient id="SVGID_1_" gradientUnits="userSpaceOnUse" x1="107.6708" y1="264.0956" x2="315.4356" y2="327.298">
	<stop  offset="0.3017" style="stop-color:#1FA5E8"/>
	<stop  offset="0.7166" style="stop-color:#3092D9"/>
	<stop  offset="1" style="stop-color:#3E82CC"/>
</linearGradient>
<path class="st0" d="M266.31,390.94l39.3-14.18V174.72l-62.57,33.23l-0.11-54.57l-135.18,76.48c0,0,0,156.38,0,166.32
	c10.36,13.68,31.62,26.81,45.31,33.61c0-5.76,0-171.98,0-171.98l57.4-34.74l-0.5,50.98l55.66-25.12l0.73,60.41L266.31,390.94z"/>
<linearGradient id="SVGID_2_" gradientUnits="userSpaceOnUse" x1="74.6899" y1="189.0145" x2="444.9361" y2="301.6441">
	<stop  offset="0" style="stop-color:#1FA5E8"/>
	<stop  offset="0.5942" style="stop-color:#3092D9"/>
	<stop  offset="1" style="stop-color:#3E82CC"/>
</linearGradient>
<path class="st1" d="M459.92,250.11c0,111.92-82.85,202.93-193.96,206.21c0-2.3,0.35-44.95,0.35-67.47
	c69.83-15.23,122.01-75.57,122.01-147.73c0-83.62-70.09-151.4-156.56-151.4S56.77,161.94,50.23,260.11
	c-0.38,5.8-0.72,12.83-0.9,20.73c-1.49-10.02-2.27-20.29-2.27-30.73c0-113.99,92.41-206.43,206.43-206.43
	C367.49,43.68,459.92,136.11,459.92,250.11z"/>
</svg>
